<svg xmlns="http://www.w3.org/2000/svg" xmlns:xlink="http://www.w3.org/1999/xlink" preserveAspectRatio="xMidYMid" width="15.09" height="12.375" viewBox="0 0 15.09 12.375">
  <defs>
    <style>
      .cls-1 {
        fill: #fff;
        fill-rule: evenodd;
      }
    </style>
  </defs>
  <path d="M15.045,3.052 C14.637,4.540 14.219,6.025 13.804,7.511 C13.725,7.793 13.648,8.076 13.566,8.357 C13.462,8.719 13.276,8.859 12.900,8.859 C11.590,8.859 10.281,8.859 8.972,8.859 C7.668,8.859 6.365,8.859 5.061,8.859 C4.659,8.859 4.480,8.727 4.372,8.343 C3.874,6.565 3.377,4.787 2.881,3.008 C2.733,2.475 2.587,1.942 2.450,1.406 C2.421,1.292 2.373,1.261 2.258,1.257 C1.694,1.238 1.130,1.216 0.567,1.179 C0.149,1.152 -0.100,0.788 0.020,0.407 C0.101,0.151 0.319,-0.004 0.608,0.007 C1.267,0.032 1.926,0.064 2.585,0.094 C2.669,0.098 2.752,0.101 2.836,0.105 C3.170,0.117 3.362,0.261 3.454,0.584 C3.591,1.063 3.728,1.542 3.850,2.024 C3.889,2.179 3.951,2.230 4.118,2.230 C7.553,2.224 10.988,2.226 14.424,2.226 C14.758,2.226 14.989,2.359 15.057,2.632 C15.090,2.764 15.081,2.920 15.045,3.052 ZM4.245,3.405 C4.257,3.457 4.263,3.489 4.272,3.520 C4.641,4.852 5.012,6.184 5.375,7.518 C5.412,7.651 5.464,7.688 5.601,7.688 C7.845,7.683 10.089,7.683 12.333,7.689 C12.490,7.689 12.540,7.632 12.578,7.497 C12.929,6.223 13.286,4.950 13.640,3.676 C13.665,3.590 13.683,3.501 13.705,3.405 C10.543,3.405 7.405,3.405 4.245,3.405 ZM6.378,9.128 C7.249,9.102 8.005,9.827 8.029,10.711 C8.052,11.579 7.339,12.332 6.465,12.363 C5.553,12.395 4.785,11.695 4.755,10.805 C4.725,9.892 5.436,9.156 6.378,9.128 ZM6.397,11.183 C6.644,11.181 6.840,10.980 6.836,10.735 C6.833,10.502 6.633,10.306 6.395,10.304 C6.151,10.302 5.946,10.505 5.948,10.745 C5.950,10.992 6.149,11.186 6.397,11.183 ZM11.348,9.128 C12.242,9.122 12.983,9.841 12.987,10.718 C12.992,11.627 12.278,12.353 11.370,12.363 C10.459,12.373 9.722,11.644 9.719,10.732 C9.717,9.859 10.454,9.133 11.348,9.128 ZM11.351,11.183 C11.599,11.185 11.801,10.987 11.801,10.745 C11.800,10.503 11.595,10.303 11.351,10.304 C11.117,10.305 10.908,10.508 10.906,10.736 C10.905,10.980 11.106,11.182 11.351,11.183 Z" class="cls-1"/>
</svg>
