<svg xmlns="http://www.w3.org/2000/svg" xmlns:xlink="http://www.w3.org/1999/xlink" preserveAspectRatio="xMidYMid" width="126" height="166" viewBox="0 0 126 166">
  <defs>
    <style>
      .cls-1 {
        fill: #fff;
        fill-rule: evenodd;
      }
    </style>
  </defs>
  <path d="M125.886,165.999 C83.796,165.999 41.963,165.999 0.000,165.999 C0.000,110.720 0.000,55.570 0.000,0.035 C0.885,0.035 1.764,0.035 2.643,0.035 C33.497,0.035 64.351,0.048 95.205,0.002 C96.923,-0.000 98.149,0.485 99.364,1.718 C107.687,10.160 116.109,18.504 124.412,26.966 C125.236,27.805 125.922,29.218 125.924,30.366 C125.999,74.930 125.988,119.493 125.984,164.057 C125.984,164.637 125.927,165.216 125.886,165.999 ZM100.846,19.672 C100.846,21.160 100.846,23.058 100.846,25.083 C103.098,25.083 105.012,25.083 106.123,25.083 C104.495,23.414 102.581,21.452 100.846,19.672 ZM115.015,36.130 C106.586,36.130 98.364,36.130 89.869,36.130 C89.869,27.563 89.869,19.252 89.869,10.961 C63.358,10.961 37.123,10.961 10.815,10.961 C10.815,59.110 10.815,107.121 10.815,155.205 C45.647,155.205 80.298,155.205 115.015,155.205 C115.015,115.512 115.015,75.951 115.015,36.130 ZM98.858,108.276 C74.867,108.276 50.979,108.276 26.993,108.276 C26.993,104.727 26.993,101.325 26.993,97.735 C50.917,97.735 74.785,97.735 98.858,97.735 C98.858,101.335 98.858,104.736 98.858,108.276 ZM98.869,140.685 C74.936,140.685 51.067,140.685 27.003,140.685 C27.003,137.077 27.003,133.676 27.003,130.145 C50.999,130.145 74.887,130.145 98.869,130.145 C98.869,133.695 98.869,137.098 98.869,140.685 ZM27.014,65.187 C50.900,65.187 74.761,65.187 98.856,65.187 C98.856,68.735 98.856,72.130 98.856,75.665 C74.877,75.665 51.004,75.665 27.014,75.665 C27.014,72.146 27.014,68.753 27.014,65.187 ZM27.028,32.607 C42.562,32.607 57.937,32.607 73.502,32.607 C73.502,36.100 73.502,39.560 73.502,43.189 C58.007,43.189 42.584,43.189 27.028,43.189 C27.028,39.693 27.028,36.300 27.028,32.607 Z" class="cls-1"/>
</svg>
