<svg xmlns="http://www.w3.org/2000/svg" xmlns:xlink="http://www.w3.org/1999/xlink" preserveAspectRatio="xMidYMid" width="22" height="21.031" viewBox="0 0 22 21.031">
  <defs>
    <style>
      .cls-1 {
        fill: #fff;
        fill-rule: evenodd;
      }
    </style>
  </defs>
  <path d="M21.786,21.007 C21.655,21.015 21.532,21.029 21.409,21.029 C17.005,21.030 12.602,21.030 8.198,21.028 C8.042,21.028 7.877,21.024 7.732,20.977 C7.346,20.852 7.102,20.456 7.148,20.075 C7.196,19.683 7.510,19.383 7.936,19.339 C8.093,19.322 8.253,19.331 8.411,19.331 C12.118,19.331 15.824,19.331 19.531,19.331 C19.735,19.331 19.938,19.331 20.171,19.331 C20.283,17.024 19.260,14.499 15.702,14.343 C15.544,14.336 15.385,14.334 15.227,14.326 C14.637,14.297 14.266,13.955 14.279,13.455 C14.291,12.968 14.695,12.597 15.267,12.608 C16.348,12.630 17.412,12.765 18.415,13.194 C20.511,14.092 21.539,15.738 21.880,17.847 C22.049,18.895 22.059,19.946 21.786,21.007 ZM9.684,13.327 C8.317,12.832 7.310,11.909 6.617,10.706 C6.183,9.954 5.890,9.120 5.592,8.303 C5.390,7.750 5.653,7.283 6.132,7.162 C6.635,7.035 7.038,7.295 7.199,7.878 C7.549,9.146 8.124,10.283 9.180,11.150 C10.466,12.205 11.664,12.218 12.924,11.140 C14.450,9.835 15.000,8.122 15.049,6.376 C15.039,4.779 14.684,3.471 13.482,2.526 C11.462,0.938 8.419,1.683 7.399,3.993 C7.337,4.134 7.291,4.280 7.227,4.420 C7.029,4.851 6.614,5.039 6.181,4.898 C5.725,4.749 5.492,4.333 5.652,3.870 C6.268,2.092 7.437,0.821 9.338,0.281 C12.812,-0.705 16.086,1.327 16.618,4.869 C17.018,7.528 16.354,9.942 14.439,11.962 C13.086,13.389 11.276,13.903 9.684,13.327 ZM6.836,12.604 C7.389,12.585 7.795,12.911 7.825,13.383 C7.859,13.912 7.484,14.275 6.901,14.331 C6.274,14.392 5.633,14.422 5.030,14.583 C3.123,15.090 2.286,16.462 2.012,18.242 C1.962,18.572 1.950,18.907 1.912,19.331 C2.601,19.331 3.215,19.328 3.828,19.332 C4.485,19.337 4.882,19.672 4.871,20.202 C4.861,20.722 4.482,21.028 3.841,21.029 C2.686,21.031 1.532,21.030 0.389,21.030 C-1.055,17.290 1.694,13.026 5.747,12.677 C6.109,12.646 6.472,12.616 6.836,12.604 Z" class="cls-1"/>
</svg>
