<svg xmlns="http://www.w3.org/2000/svg" xmlns:xlink="http://www.w3.org/1999/xlink" preserveAspectRatio="xMidYMid" width="15.22" height="15.125" viewBox="0 0 15.22 15.125">
  <defs>
    <style>
      .cls-1 {
        fill: #fff;
        fill-rule: evenodd;
      }
    </style>
  </defs>
  <path d="M9.942,11.408 C6.917,13.450 3.198,12.585 1.259,10.054 C-0.651,7.561 -0.398,4.049 1.874,1.812 C4.107,-0.386 7.669,-0.594 10.164,1.314 C12.685,3.242 13.518,6.915 11.476,9.891 C11.530,9.926 11.602,9.959 11.655,10.011 C12.714,11.058 13.769,12.109 14.829,13.154 C15.169,13.489 15.330,13.874 15.192,14.341 C14.949,15.161 13.941,15.405 13.317,14.794 C12.509,14.001 11.706,13.202 10.905,12.402 C10.580,12.078 10.265,11.743 9.942,11.408 ZM6.319,2.221 C4.019,2.222 2.210,4.023 2.213,6.310 C2.215,8.529 4.051,10.337 6.302,10.339 C8.570,10.341 10.394,8.530 10.395,6.275 C10.396,4.027 8.581,2.221 6.319,2.221 Z" class="cls-1"/>
</svg>
